<svg xmlns="http://www.w3.org/2000/svg" xmlns:xlink="http://www.w3.org/1999/xlink" width="99" height="97" viewBox="0 0 99 97">
    <defs>
        <path id="prefix__a" d="M19.065 1.968c-9.908 0-17.941 7.86-17.941 17.558v38.41c0 9.698 8.033 17.56 17.941 17.56h39.246c9.909 0 17.939-7.862 17.939-17.56v-38.41c0-9.698-8.03-17.558-17.94-17.558"/>
        <path id="prefix__c" d="M19.065 1.968c-9.908 0-17.941 7.86-17.941 17.558v38.41c0 9.698 8.033 17.56 17.941 17.56h39.246c9.909 0 17.939-7.862 17.939-17.56v-38.41c0-9.698-8.03-17.558-17.94-17.558H19.066z"/>
    </defs>
    <g fill="none" fill-rule="evenodd">
        <g>
            <path stroke="#231F20" stroke-width=".345" d="M74.615 97.505H24.5c-13.324 0-24.124-10.57-24.124-23.61v-49.05c0-13.04 10.8-23.612 24.124-23.612h50.115c13.324 0 24.124 10.572 24.124 23.613v49.048c0 13.04-10.8 23.611-24.124 23.611z" transform="translate(0 -2) translate(0 1.261)"/>
            <path fill="#5EA8DB" d="M69.18 86.133H29.936c-9.909 0-17.941-7.861-17.941-17.557V30.163c0-9.696 8.032-17.557 17.941-17.557h39.246c9.908 0 17.939 7.861 17.939 17.557v38.413c0 9.696-8.03 17.557-17.94 17.557" transform="translate(0 -2) translate(0 1.261)"/>
            <path fill="#90539B" d="M12.182 60.292l28.176-22.894c1.998 2.409 8.14 9.81 10.23 12.334 1.534 1.917 4.623 2.224 6.507.626l24.244-19.71 5.86 5.735c.577.564 1.564.245 1.683-.544l2.9-19.132c.098-.645-.467-1.198-1.126-1.102l-19.548 2.838c-.806.117-1.132 1.083-.556 1.647l4.26 4.168-20.014 16.27-2.772-3.338-7.459-8.996c-.774-.932-1.898-1.523-3.12-1.64-1.225-.124-2.44.249-3.384 1.017L6.31 53.37c1.465 1.725 4.408 5.195 5.871 6.92" transform="translate(0 -2) translate(0 1.261)"/>
        </g>
        <g transform="translate(0 -2) translate(10.87 11.9)">
            <mask id="prefix__b" fill="#fff">
                <use xlink:href="#prefix__a"/>
            </mask>
            <path fill="#FDCD73" d="M54.81 83.105H22.565c-2.13 0-3.874-1.706-3.874-3.792V34.416c0-2.086 1.743-3.792 3.874-3.792h32.243c2.13 0 3.876 1.706 3.876 3.792v44.897c0 2.086-1.745 3.792-3.876 3.792" mask="url(#prefix__b)"/>
            <mask id="prefix__d" fill="#fff">
                <use xlink:href="#prefix__c"/>
            </mask>
            <path fill="#F38379" d="M26.957 43.06L50.417 43.06 50.417 39.972 26.957 39.972zM26.957 53.236L50.417 53.236 50.417 50.151 26.957 50.151zM26.957 63.006L50.417 63.006 50.417 59.919 26.957 59.919zM26.957 73.198L50.417 73.198 50.417 70.113 26.957 70.113z" mask="url(#prefix__d)"/>
        </g>
    </g>
</svg>
