<svg xmlns="http://www.w3.org/2000/svg" xmlns:xlink="http://www.w3.org/1999/xlink" width="99" height="97" viewBox="0 0 99 97">
    <defs>
        <path id="prefix__a" d="M19.065 1.968c-9.908 0-17.941 7.86-17.941 17.558v38.41c0 9.698 8.033 17.56 17.941 17.56h39.246c9.909 0 17.939-7.862 17.939-17.56v-38.41c0-9.698-8.03-17.558-17.94-17.558"/>
        <path id="prefix__c" d="M19.065 1.968c-9.908 0-17.941 7.86-17.941 17.558v38.41c0 9.698 8.033 17.56 17.941 17.56h39.246c9.909 0 17.939-7.862 17.939-17.56v-38.41c0-9.698-8.03-17.558-17.94-17.558"/>
        <path id="prefix__e" d="M19.065 1.968c-9.908 0-17.941 7.86-17.941 17.558v38.41c0 9.698 8.033 17.56 17.941 17.56h39.246c9.909 0 17.939-7.862 17.939-17.56v-38.41c0-9.698-8.03-17.558-17.94-17.558"/>
        <path id="prefix__g" d="M19.065 1.968c-9.908 0-17.941 7.86-17.941 17.558v38.41c0 9.698 8.033 17.56 17.941 17.56h39.246c9.909 0 17.939-7.862 17.939-17.56v-38.41c0-9.698-8.03-17.558-17.94-17.558"/>
        <path id="prefix__i" d="M19.065 1.968c-9.908 0-17.941 7.86-17.941 17.558v38.41c0 9.698 8.033 17.56 17.941 17.56h39.246c9.909 0 17.939-7.862 17.939-17.56v-38.41c0-9.698-8.03-17.558-17.94-17.558H19.066z"/>
    </defs>
    <g fill="none" fill-rule="evenodd">
        <g>
            <path stroke="#231F20" stroke-width=".345" d="M74.615 97.505H24.5c-13.324 0-24.124-10.57-24.124-23.61v-49.05c0-13.04 10.8-23.612 24.124-23.612h50.115c13.324 0 24.124 10.572 24.124 23.613v49.049c0 13.04-10.8 23.61-24.124 23.61z" transform="translate(0 -2) translate(0 1.261)"/>
            <path fill="#FDCD73" d="M69.18 86.133H29.936c-9.909 0-17.941-7.861-17.941-17.56v-38.41c0-9.696 8.032-17.557 17.941-17.557h39.246c9.908 0 17.939 7.861 17.939 17.557v38.41c0 9.699-8.03 17.56-17.94 17.56" transform="translate(0 -2) translate(0 1.261)"/>
            <path fill="#FDCD73" d="M69.18 86.133H29.936c-9.909 0-17.941-7.861-17.941-17.56v-38.41c0-9.696 8.032-17.557 17.941-17.557h39.246c9.908 0 17.939 7.861 17.939 17.557v38.41c0 9.699-8.03 17.56-17.94 17.56" transform="translate(0 -2) translate(0 1.261)"/>
        </g>
        <g transform="translate(0 -2) translate(10.87 11.9)">
            <mask id="prefix__b" fill="#fff">
                <use xlink:href="#prefix__a"/>
            </mask>
            <path fill="#5EA8DB" d="M56.103 68.108h-34.83c-6.126 0-11.14-4.907-11.14-10.9V26.199c0-5.996 5.014-10.9 11.14-10.9h34.83c6.126 0 11.14 4.904 11.14 10.9v31.009c0 5.993-5.014 10.9-11.14 10.9" mask="url(#prefix__b)"/>
            <mask id="prefix__d" fill="#fff">
                <use xlink:href="#prefix__c"/>
            </mask>
            <path fill="#FEFEFE" d="M56.213 68.108H21.161c-6.089 0-11.026-4.832-11.026-10.794V28.769h57.107v28.545c0 5.962-4.937 10.794-11.029 10.794" mask="url(#prefix__d)"/>
            <g>
                <mask id="prefix__f" fill="#fff">
                    <use xlink:href="#prefix__e"/>
                </mask>
                <path fill="#FEFEFE" d="M29.083 22.08h-1.591c-1.172 0-2.124-.93-2.124-2.08v-9.108c0-1.149.952-2.079 2.124-2.079h1.591c1.174 0 2.124.93 2.124 2.08V20c0 1.149-.95 2.078-2.124 2.078" mask="url(#prefix__f)"/>
            </g>
            <g>
                <mask id="prefix__h" fill="#fff">
                    <use xlink:href="#prefix__g"/>
                </mask>
                <path fill="#FEFEFE" d="M50.27 22.08h-1.592c-1.172 0-2.124-.93-2.124-2.08v-9.108c0-1.149.952-2.079 2.124-2.079h1.591c1.174 0 2.124.93 2.124 2.08V20c0 1.149-.95 2.078-2.124 2.078" mask="url(#prefix__h)"/>
            </g>
            <g>
                <mask id="prefix__j" fill="#fff">
                    <use xlink:href="#prefix__i"/>
                </mask>
                <path fill="#F38379" d="M41.494 40.583L27.679 40.583 27.679 34.343 49.911 34.343 49.911 39.294 39.922 62.094 31.887 62.094z" mask="url(#prefix__j)"/>
            </g>
        </g>
    </g>
</svg>
