<svg xmlns="http://www.w3.org/2000/svg" xmlns:xlink="http://www.w3.org/1999/xlink" width="99" height="97" viewBox="0 0 99 97">
    <defs>
        <path id="prefix__a" d="M20.696 38.298c10.378 0 18.791-8.234 18.791-18.39 0-10.157-8.413-18.391-18.791-18.391-24.922.966-24.929 35.813 0 36.78z"/>
        <path id="prefix__c" d="M1.302 3.306L6.509 7.03 7.691 4.821 2.215 2.079z"/>
        <path id="prefix__f" d="M1.17 4.821L2.35 7.03 7.561 3.306 6.646 2.079z"/>
        <path id="prefix__i" d="M19.065 1.674c-9.908 0-17.939 7.862-17.939 17.56v38.41c0 9.699 8.03 17.558 17.94 17.558H58.31c9.909 0 17.939-7.86 17.939-17.557V19.234c0-9.698-8.03-17.56-17.94-17.56"/>
        <path id="prefix__k" d="M19.065 1.674c-9.908 0-17.939 7.862-17.939 17.56v38.41c0 9.699 8.03 17.558 17.94 17.558H58.31c9.909 0 17.939-7.86 17.939-17.557V19.234c0-9.698-8.03-17.56-17.94-17.56H19.066z"/>
        <path id="prefix__m" d="M20.54 37.251c10.23 0 18.525-8.12 18.525-18.134C39.065 9.104 30.77.985 20.54.985c-24.567.953-24.578 35.31 0 36.266z"/>
        <path id="prefix__o" d="M19.065 1.674c-9.908 0-17.939 7.862-17.939 17.56v38.41c0 9.699 8.03 17.558 17.94 17.558H58.31c9.909 0 17.939-7.86 17.939-17.557V19.234c0-9.698-8.03-17.56-17.94-17.56"/>
        <path id="prefix__q" d="M19.065 1.674c-9.908 0-17.939 7.862-17.939 17.56v38.41c0 9.699 8.03 17.558 17.94 17.558H58.31c9.909 0 17.939-7.86 17.939-17.557V19.234c0-9.698-8.03-17.56-17.94-17.56H19.066z"/>
        <linearGradient id="prefix__d" x1="56.134%" x2="47.089%" y1="16.069%" y2="57.227%">
            <stop offset="0%" stop-color="#FEFEFE"/>
            <stop offset="100%" stop-color="#DDDFE0"/>
        </linearGradient>
        <linearGradient id="prefix__g" x1="43.835%" x2="52.877%" y1="16.092%" y2="57.222%">
            <stop offset="0%" stop-color="#FEFEFE"/>
            <stop offset="100%" stop-color="#DDDFE0"/>
        </linearGradient>
    </defs>
    <g fill="none" fill-rule="evenodd">
        <g>
            <path stroke="#231F20" stroke-width=".345" d="M74.616 97.213H24.498c-13.324 0-24.121-10.57-24.121-23.61v-49.05C.377 11.514 11.174.942 24.498.942h50.118c13.324 0 24.126 10.572 24.126 23.613v49.049c0 13.04-10.802 23.61-24.126 23.61z" transform="translate(0 -2) translate(0 1.553)"/>
            <path fill="#FDCD73" d="M69.18 85.841H29.936c-9.908 0-17.941-7.861-17.941-17.557V29.871c0-9.695 8.033-17.557 17.941-17.557h39.246c9.909 0 17.939 7.862 17.939 17.557v38.413c0 9.696-8.03 17.557-17.94 17.557" transform="translate(0 -2) translate(0 1.553)"/>
        </g>
        <g transform="translate(0 -2) translate(15.217 16.447)">
            <mask id="prefix__b" fill="#fff">
                <use xlink:href="#prefix__a"/>
            </mask>
            <path fill="#61C3AD" d="M-12.217 57.917L53.641 57.917 53.641 -6.54 -12.217 -6.54z" mask="url(#prefix__b)"/>
            <path fill="#90539B" d="M20.72 48.015c8.165 0 17.098.039 21.891-5.702-.734-1.147-3.139-5.953-3.91-6.94-.068-.139-.14-.273-.222-.398-2.687-3.706-7.642-5.46-12.133-6.268-1.506-.302-3.196-.458-5.08-.445-.794-.015-.287-.015-1.08 0-5.879.009-13.944 1.883-16.977 6.417-.948 1.138-3.532 6.172-4.43 7.575 4.791 5.774 13.748 5.761 21.941 5.761" mask="url(#prefix__b)"/>
            <path fill="#E98023" d="M24.034 24.478c-.583-2.455-.259-4.636-.259-4.636H17.57s.324 2.18-.259 4.636c-.58 2.458-2.422 4.28-2.422 4.28 2.855 2.11 8.755 2.084 11.568 0 0 0-1.84-1.822-2.422-4.28" mask="url(#prefix__b)"/>
            <path fill="#FBBA6B" d="M20.673 7.396c-10.508-.425-6.515 18.617-.002 18.232 6.524.451 10.487-18.698.002-18.232" mask="url(#prefix__b)"/>
            <path fill="#90539B" d="M27.692 10.604c-.84-2.836-2.998-4.523-7.02-4.544-5.543-.047-7.602 3.487-7.354 7.906.052.498.052 1.266.206 1.898.098 1.213.985 3.104 1.48 4.104.157-.791-.01-2.31-.008-3.436-.01-2.385.785-4.634 3.08-5.55.272-.163.59-.288.961-.367 3.835-.802 5.744 0 5.744 0s1.28.906 1.496 3.979c.01.132 0 .257-.027.379 0 .006.003.012.003.019.263 1.578-.126 3.838.087 4.976.717-1.353 1.55-3.461 1.613-5.068.328-1.396.13-2.932-.261-4.296" mask="url(#prefix__b)"/>
            <path fill="#90539B" d="M25.227 9.729s-.724 2.178-2.28 3.287c-1.557 1.106-8.45.538-8.45.538.339-6.264 7.154-6.21 10.73-3.825" mask="url(#prefix__b)"/>
        </g>
        <g transform="translate(0 -2) translate(28.26 41.979)">
            <mask id="prefix__e" fill="#fff">
                <use xlink:href="#prefix__c"/>
            </mask>
            <path fill="url(#prefix__d)" d="M1.302 3.306L6.509 7.03 7.691 4.821 2.215 2.079z" mask="url(#prefix__e)"/>
        </g>
        <g transform="translate(0 -2) translate(34.783 41.979)">
            <mask id="prefix__h" fill="#fff">
                <use xlink:href="#prefix__f"/>
            </mask>
            <path fill="url(#prefix__g)" d="M1.17 4.821L2.35 7.03 7.561 3.306 6.646 2.079z" mask="url(#prefix__h)"/>
        </g>
        <g transform="translate(0 -2) translate(10.87 12.192)">
            <mask id="prefix__j" fill="#fff">
                <use xlink:href="#prefix__i"/>
            </mask>
            <path fill="#F38379" d="M70.5 27.1V15.326c0-.881-1.014-1.602-2.253-1.602H41.701c-1.239 0-2.254.72-2.254 1.602v3.404l-5.007 2.572 5.007 2.6V27.1c0 .881 1.015 1.602 2.254 1.602h26.546c1.24 0 2.252-.72 2.252-1.602" mask="url(#prefix__j)"/>
            <mask id="prefix__l" fill="#fff">
                <use xlink:href="#prefix__k"/>
            </mask>
            <path fill="#FEFEFE" d="M43.393 19.666L65.95 19.666 65.95 17.864 43.393 17.864zM43.393 23.951L65.95 23.951 65.95 22.149 43.393 22.149z" mask="url(#prefix__l)"/>
        </g>
        <g transform="translate(0 -2) translate(43.478 46.234)">
            <mask id="prefix__n" fill="#fff">
                <use xlink:href="#prefix__m"/>
            </mask>
            <path fill="#5EA8DB" d="M-8.511 53.191L49.585 53.191 49.585 -3.668 -8.511 -3.668z" mask="url(#prefix__n)"/>
            <path fill="#6B3A77" d="M20.557 38.415c5.865 0 12.284.027 15.728-4.096-.528-.826-2.257-4.277-2.811-4.987-.048-.1-.1-.196-.159-.285-1.932-2.662-5.489-3.924-8.717-4.505-1.083-.217-2.294-.327-3.648-.319-.572-.01-.207-.01-.778 0-4.224.007-10.018 1.353-12.196 4.61-.683.818-2.537 4.435-3.183 5.441 3.442 4.15 9.877 4.14 15.764 4.14" mask="url(#prefix__n)"/>
            <path fill="#E98023" d="M23.316 21.505c-.415-1.766-.313-3.33-.313-3.33H18.04s.105 1.564-.313 3.33c-.417 1.766-1.36 3.074-1.36 3.074 1.96 1.507 6.38 1.49 8.31 0 0 0-.943-1.308-1.36-3.074" mask="url(#prefix__n)"/>
            <path fill="#FBBA6B" d="M20.514 6.416c-9.917-.317-6.007 16.123 0 15.732 2.222 0 3.713-1.381 4.991-4.226 1.274-2.84 2.755-11.615-4.991-11.506" mask="url(#prefix__n)"/>
            <path fill="#6B3A77" d="M27.085 9.183c-.818-2.497-2.816-3.889-6.57-3.923-5.174-.021-7.102 2.947-6.885 6.823.048.43.048 1.094.192 1.639.095 1.06.923 2.678 1.386 3.542.146-.685-.008-1.993-.008-2.966-.011-2.06.735-3.998 2.885-4.79.254-.14.55-.248.897-.314 3.592-.694 5.376 0 5.376 0s1.2.78 1.403 3.432c.008.113 0 .223-.024.325 0 .007 0 .011.002.018.243 1.361-.12 3.312.08 4.295.668-1.164 1.448-2.972 1.509-4.374.307-1.204.124-2.53-.243-3.707" mask="url(#prefix__n)"/>
            <path fill="#6B3A77" d="M24.777 8.427s-.678 1.88-2.133 2.836c-1.456.958-7.91.466-7.91.466.358-5.657 7.097-5.183 10.043-3.302" mask="url(#prefix__n)"/>
        </g>
        <g transform="translate(0 -2) translate(10.87 12.192)">
            <mask id="prefix__p" fill="#fff">
                <use xlink:href="#prefix__o"/>
            </mask>
            <path fill="#F38379" d="M7.526 48.168v11.774c0 .881 1.015 1.602 2.252 1.602h26.545c1.24 0 2.255-.72 2.255-1.602v-3.404l5.006-2.572-5.006-2.6v-3.198c0-.881-1.015-1.602-2.255-1.602H9.778c-1.237 0-2.252.721-2.252 1.602" mask="url(#prefix__p)"/>
            <mask id="prefix__r" fill="#fff">
                <use xlink:href="#prefix__q"/>
            </mask>
            <path fill="#FEFEFE" d="M12.076 57.402L34.633 57.402 34.633 55.6 12.076 55.6zM12.076 53.119L34.633 53.119 34.633 51.317 12.076 51.317z" mask="url(#prefix__r)"/>
        </g>
    </g>
</svg>
