<svg xmlns="http://www.w3.org/2000/svg" xmlns:xlink="http://www.w3.org/1999/xlink" width="99" height="99" viewBox="0 0 99 99">
    <defs>
        <path id="prefix__a" d="M0 99.115L99.115 99.115 99.115 0 0 0z"/>
    </defs>
    <g fill="none" fill-rule="evenodd">
        <path stroke="#231F20" stroke-width=".345" d="M74.616 98.74H24.498C11.174 98.74.377 87.94.377 74.616V24.501C.377 11.177 11.174.375 24.498.375h50.118C87.94.375 98.742 11.177 98.742 24.5v50.115c0 13.324-10.802 24.124-24.126 24.124z"/>
        <path fill="#5EA8DB" d="M69.18 87.12H29.936c-9.908 0-17.941-8.032-17.941-17.94V29.934c0-9.907 8.033-17.94 17.941-17.94h39.246c9.909 0 17.939 8.033 17.939 17.94V69.18c0 9.908-8.03 17.94-17.94 17.94"/>
        <path fill="#FDCD73" d="M22.966 43.802V23.198c0-1.542 1.737-2.805 3.859-2.805h45.463c2.124 0 3.86 1.263 3.86 2.805v8.39l5.172 3.307-5.171 3.31v5.597c0 1.541-1.737 2.804-3.861 2.804H26.825c-2.122 0-3.859-1.263-3.859-2.804"/>
        <path fill="#90539B" d="M76.488 74.451V53.845c0-1.542-1.737-2.803-3.859-2.803H27.164c-2.124 0-3.86 1.261-3.86 2.803v8.39l-5.17 3.31 5.17 3.308v5.598c0 1.541 1.736 2.802 3.86 2.802H72.63c2.122 0 3.859-1.26 3.859-2.802"/>
        <path fill="#FEFEFE" d="M63.903 36.433c2.628.109 2.628 3.878 0 3.985-2.628-.107-2.628-3.878 0-3.985m-.148-5.47c.53-.36.952-.656.952-1.102 0-.465-.337-.826-1.25-.826-.804 0-1.63.424-2.226 1.102l-2.034-2.332c2.302-2.93 9.245-2.707 9.2 1.4 0 1.758-1.08 2.565-2.014 3.265-.993.622-1.732 1.522-.954 2.437l-2.82.722c-1.347-1.776-.508-3.75 1.146-4.666"/>
        <mask id="prefix__b" fill="#fff">
            <use xlink:href="#prefix__a"/>
        </mask>
        <path fill="#FEFEFE" d="M30.063 31.172L55.639 31.172 55.639 28.017 30.063 28.017zM30.063 38.667L55.639 38.667 55.639 35.513 30.063 35.513zM30.063 61.443L68.696 61.443 68.696 58.289 30.063 58.289zM30.063 68.939L68.696 68.939 68.696 65.785 30.063 65.785z" mask="url(#prefix__b)"/>
    </g>
</svg>
