<svg xmlns="http://www.w3.org/2000/svg" xmlns:xlink="http://www.w3.org/1999/xlink" width="99" height="97" viewBox="0 0 99 97">
    <defs>
        <path id="prefix__a" d="M19.065 1.194c-9.908 0-17.939 7.863-17.939 17.56v38.41c0 9.698 8.03 17.56 17.94 17.56H58.31c9.909 0 17.939-7.862 17.939-17.56v-38.41c0-9.697-8.03-17.56-17.94-17.56H19.066z"/>
        <path id="prefix__c" d="M19.065 1.194c-9.908 0-17.939 7.863-17.939 17.56v38.41c0 9.698 8.03 17.56 17.94 17.56H58.31c9.909 0 17.939-7.862 17.939-17.56v-38.41c0-9.697-8.03-17.56-17.94-17.56"/>
        <path id="prefix__e" d="M19.065 1.194c-9.908 0-17.939 7.863-17.939 17.56v38.41c0 9.698 8.03 17.56 17.94 17.56H58.31c9.909 0 17.939-7.862 17.939-17.56v-38.41c0-9.697-8.03-17.56-17.94-17.56"/>
        <path id="prefix__g" d="M19.065 1.194c-9.908 0-17.939 7.863-17.939 17.56v38.41c0 9.698 8.03 17.56 17.94 17.56H58.31c9.909 0 17.939-7.862 17.939-17.56v-38.41c0-9.697-8.03-17.56-17.94-17.56"/>
        <path id="prefix__i" d="M19.065 1.194c-9.908 0-17.939 7.863-17.939 17.56v38.41c0 9.698 8.03 17.56 17.94 17.56H58.31c9.909 0 17.939-7.862 17.939-17.56v-38.41c0-9.697-8.03-17.56-17.94-17.56"/>
        <path id="prefix__k" d="M19.065 1.194c-9.908 0-17.939 7.863-17.939 17.56v38.41c0 9.698 8.03 17.56 17.94 17.56H58.31c9.909 0 17.939-7.862 17.939-17.56v-38.41c0-9.697-8.03-17.56-17.94-17.56"/>
        <path id="prefix__m" d="M0.959 2.681L8.898 8.355 10.7 4.989 2.354 0.811z"/>
        <path id="prefix__p" d="M2.004 4.989L3.804 8.355 11.743 2.681 10.35 0.811z"/>
        <path id="prefix__s" d="M19.065 1.194c-9.908 0-17.939 7.863-17.939 17.56v38.41c0 9.698 8.03 17.56 17.94 17.56H58.31c9.909 0 17.939-7.862 17.939-17.56v-38.41c0-9.697-8.03-17.56-17.94-17.56H19.066z"/>
        <path id="prefix__u" d="M19.065 1.194c-9.908 0-17.939 7.863-17.939 17.56v38.41c0 9.698 8.03 17.56 17.94 17.56H58.31c9.909 0 17.939-7.862 17.939-17.56v-38.41c0-9.697-8.03-17.56-17.94-17.56H19.066z"/>
        <linearGradient id="prefix__n" x1="56.141%" x2="47.098%" y1="16.089%" y2="57.219%">
            <stop offset="0%" stop-color="#FEFEFE"/>
            <stop offset="100%" stop-color="#DDDFE0"/>
        </linearGradient>
        <linearGradient id="prefix__q" x1="43.856%" x2="52.902%" y1="16.074%" y2="57.223%">
            <stop offset="0%" stop-color="#FEFEFE"/>
            <stop offset="100%" stop-color="#DDDFE0"/>
        </linearGradient>
    </defs>
    <g fill="none" fill-rule="evenodd">
        <g>
            <path stroke="#231F20" stroke-width=".345" d="M74.615 96.733H24.5c-13.324 0-24.124-10.57-24.124-23.61v-49.05C.376 11.034 11.176.462 24.5.462h50.115C87.94.46 98.74 11.033 98.74 24.074v49.049c0 13.04-10.8 23.61-24.124 23.61z" transform="translate(0 -2) translate(0 2.034)"/>
            <path fill="#61C3AD" d="M69.18 85.361H29.936c-9.909 0-17.941-7.861-17.941-17.56v-38.41c0-9.696 8.032-17.557 17.941-17.557h39.246c9.908 0 17.939 7.861 17.939 17.557v38.41c0 9.699-8.03 17.56-17.94 17.56" transform="translate(0 -2) translate(0 2.034)"/>
        </g>
        <g transform="translate(0 -2) translate(10.87 12.672)">
            <mask id="prefix__b" fill="#fff">
                <use xlink:href="#prefix__a"/>
            </mask>
            <path fill="#FEFEFE" d="M38.688 4.794L41.838 11.041 48.879 12.041 43.783 16.902 44.985 23.766 38.688 20.526 32.39 23.766 33.592 16.902 28.498 12.041 35.54 11.041z" mask="url(#prefix__b)"/>
            <mask id="prefix__d" fill="#fff">
                <use xlink:href="#prefix__c"/>
            </mask>
            <path fill="#90539B" d="M38.94 89.362c12.445 0 26.067.058 33.373-8.691-1.122-1.75-4.79-9.077-5.965-10.583-.1-.211-.211-.415-.337-.605-4.098-5.65-11.648-8.325-18.498-9.555-2.296-.462-4.867-.698-7.741-.68-1.211-.022-.437-.022-1.648 0-8.963.014-21.257 2.872-25.878 9.784-1.446 1.732-5.385 9.409-6.757 11.545 7.304 8.804 20.959 8.785 33.45 8.785" mask="url(#prefix__d)"/>
            <g>
                <mask id="prefix__f" fill="#fff">
                    <use xlink:href="#prefix__e"/>
                </mask>
                <path fill="#E98023" d="M43.99 53.48c-.886-3.744-.395-7.067-.395-7.067h-9.459c.594 4.757-.495 10.004-4.089 13.591 4.383 3.22 13.318 3.183 17.635 0 0 0-2.807-2.779-3.691-6.523" mask="url(#prefix__f)"/>
            </g>
            <g>
                <mask id="prefix__h" fill="#fff">
                    <use xlink:href="#prefix__g"/>
                </mask>
                <path fill="#FBBA6B" d="M38.866 27.44c-16.018-.65-9.933 28.38 0 27.793 9.939.707 15.985-28.519 0-27.793" mask="url(#prefix__h)"/>
            </g>
            <g>
                <mask id="prefix__j" fill="#fff">
                    <use xlink:href="#prefix__i"/>
                </mask>
                <path fill="#90539B" d="M49.566 32.33c-1.279-4.325-4.568-6.897-10.7-6.929-8.453-.07-11.587 5.32-11.213 12.053.08.762.08 1.932.317 2.894.15 1.85 1.498 4.732 2.257 6.257.236-1.208-.016-3.523-.014-5.236-.017-3.64 1.194-7.066 4.696-8.464.413-.246.896-.438 1.463-.557 5.85-1.224 8.757 0 8.757 0s1.95 1.379 2.28 6.062c.013.204-.002.395-.039.578l.002.03c.4 2.409-.189 5.853.135 7.587.43-.889 1.715-3.591 1.967-4.746.213-.994.38-1.99.49-2.981.5-2.126.2-4.468-.398-6.547" mask="url(#prefix__j)"/>
            </g>
            <g>
                <mask id="prefix__l" fill="#fff">
                    <use xlink:href="#prefix__k"/>
                </mask>
                <path fill="#90539B" d="M45.81 30.995s-1.104 3.323-3.476 5.01c-2.372 1.69-12.88.822-12.88.822.51-9.545 10.897-9.47 16.356-5.832" mask="url(#prefix__l)"/>
            </g>
        </g>
        <g transform="translate(0 -2) translate(39.13 70.119)">
            <mask id="prefix__o" fill="#fff">
                <use xlink:href="#prefix__m"/>
            </mask>
            <path fill="url(#prefix__n)" d="M0.959 2.681L8.898 8.355 10.7 4.989 2.354 0.811z" mask="url(#prefix__o)"/>
        </g>
        <g transform="translate(0 -2) translate(47.826 70.119)">
            <mask id="prefix__r" fill="#fff">
                <use xlink:href="#prefix__p"/>
            </mask>
            <path fill="url(#prefix__q)" d="M2.004 4.989L3.804 8.355 11.743 2.681 10.35 0.811z" mask="url(#prefix__r)"/>
        </g>
        <g transform="translate(0 -2) translate(10.87 12.672)">
            <mask id="prefix__t" fill="#fff">
                <use xlink:href="#prefix__s"/>
            </mask>
            <path fill="#FEFEFE" d="M61.348 10.052L61.778 15.852 66.902 18.792 61.4 20.984 60.126 26.664 56.296 22.218 50.383 22.788 53.518 17.85 51.139 12.522 56.907 13.913z" mask="url(#prefix__t)"/>
            <g>
                <mask id="prefix__v" fill="#fff">
                    <use xlink:href="#prefix__u"/>
                </mask>
                <path fill="#FEFEFE" d="M16.031 10.052L15.601 15.852 10.477 18.792 15.979 20.984 17.253 26.664 21.083 22.218 26.997 22.788 23.862 17.85 26.24 12.522 20.473 13.913z" mask="url(#prefix__v)"/>
            </g>
        </g>
    </g>
</svg>
